<svg width="40" height="40" viewBox="0 0 40 40" fill="none" xmlns="http://www.w3.org/2000/svg">
<path d="M20.4189 34.0995C12.4149 34.0995 6.14965 27.7075 6.14965 19.7837C6.14965 11.8602 12.4149 5.46819 20.4189 5.46819C24.7361 5.46819 27.8877 7.15119 30.2182 9.30715L34.0579 5.50614C30.8106 2.42367 26.4744 0.0782776 20.4189 0.0782776C9.45431 0.0785812 0.227806 8.9292 0.227806 19.7837C0.227806 30.6388 9.45431 39.4891 20.4189 39.4891C26.3407 39.4891 30.8106 37.5602 34.3063 33.9672C37.8974 30.4117 39.0053 25.4192 39.0053 21.3723C39.0053 20.1052 38.8526 18.8004 38.6805 17.836H20.4189V23.0932H33.4275C33.0454 26.384 31.9949 28.6343 30.4475 30.1658C28.5755 32.0383 25.6149 34.0995 20.4189 34.0995V34.0995Z" fill="white" fill-opacity="0.2"/>
</svg>
