<svg width="45" height="44" viewBox="0 0 45 44" fill="none" xmlns="http://www.w3.org/2000/svg">
<path d="M3.12825 21.8432C3.12825 29.2608 7.47165 35.6705 13.7695 38.7083L4.76285 14.2169C3.68317 16.6166 3.12615 19.2155 3.12825 21.8436V21.8432ZM34.7548 20.8977C34.7548 18.5819 33.9167 16.978 33.1975 15.7294C32.2404 14.1861 31.3435 12.8788 31.3435 11.3355C31.3435 9.61268 32.6598 8.00913 34.5138 8.00913C34.5975 8.00913 34.6767 8.01966 34.7586 8.02417C31.3996 4.96974 26.9243 3.1052 22.0088 3.1052C15.4128 3.1052 9.60982 6.46386 6.23377 11.5517C6.67709 11.5645 7.09426 11.5739 7.44892 11.5739C9.42378 11.5739 12.4808 11.3358 12.4808 11.3358C13.4985 11.2764 13.6183 12.76 12.602 12.8796C12.602 12.8796 11.579 12.9992 10.4408 13.0582L17.3164 33.3558L21.448 21.0568L18.5065 13.0578C17.4899 12.9984 16.5268 12.8788 16.5268 12.8788C15.509 12.8198 15.6287 11.2757 16.6457 11.3355C16.6457 11.3355 19.7641 11.5731 21.6193 11.5731C23.5934 11.5731 26.6511 11.3355 26.6511 11.3355C27.6692 11.2757 27.789 12.7592 26.772 12.8788C26.772 12.8788 25.7471 12.9984 24.6111 13.0575L31.4341 33.2016L33.3172 26.9551C34.1334 24.3636 34.7548 22.5021 34.7548 20.8977V20.8977ZM22.3399 23.4825L16.6753 39.82C18.4072 40.3263 20.2033 40.5834 22.0088 40.5834C24.1442 40.5841 26.2643 40.2249 28.2785 39.521C28.2263 39.4391 28.1814 39.3528 28.1444 39.263L22.3399 23.4825V23.4825ZM38.5757 12.8529C38.6568 13.4497 38.703 14.0902 38.703 14.7799C38.703 16.6813 38.3449 18.8188 37.2669 21.4916L31.5 38.0412C37.1131 34.7923 40.8885 28.7568 40.8885 21.8439C40.8889 18.5857 40.0504 15.5222 38.5757 12.8529V12.8529ZM22.0088 0C9.87354 0 0 9.79884 0 21.8432C0 33.8894 9.87354 43.6879 22.0088 43.6879C34.144 43.6879 44.0187 33.8894 44.0187 21.8432C44.0187 9.79884 34.144 0 22.0088 0ZM22.0088 42.6864C10.4302 42.6864 1.00903 33.3362 1.00903 21.8432C1.00903 10.3513 10.4298 1.00147 22.0088 1.00147C33.5874 1.00147 43.0078 10.3513 43.0078 21.8432C43.0078 33.3362 33.5874 42.6864 22.0088 42.6864V42.6864Z" fill="white" fill-opacity="0.2"/>
</svg>
